<svg width="16" height="12" viewBox="0 0 16 12" fill="none" xmlns="http://www.w3.org/2000/svg">
<path d="M3.40404 11.4696C3.25214 11.4696 3.12494 11.4183 3.02244 11.3157C2.91982 11.213 2.86851 11.0857 2.86851 10.9339V10.2196H2.67619C2.17714 10.2196 1.75476 10.0468 1.40904 9.70107C1.06333 9.35548 0.890472 8.9331 0.890472 8.43393V4.8625C0.890472 4.33595 1.07017 3.90673 1.42958 3.57482C1.7891 3.2428 2.20464 3.07679 2.67619 3.07679V1.78571C2.67619 1.28655 2.84904 0.864166 3.19476 0.518571C3.54047 0.172857 3.96285 0 4.4619 0H12.319C12.8181 0 13.2405 0.172857 13.5862 0.518571C13.9319 0.864166 14.1048 1.28655 14.1048 1.78571V3.07679C14.5946 3.07679 15.0148 3.24625 15.3651 3.58518C15.7154 3.92399 15.8905 4.34976 15.8905 4.8625V8.43393C15.8905 8.9331 15.7176 9.35548 15.3719 9.70107C15.0262 10.0468 14.6038 10.2196 14.1048 10.2196H13.9124V10.9339C13.9124 11.0857 13.8634 11.213 13.7655 11.3157C13.6675 11.4183 13.5426 11.4696 13.3907 11.4696C13.2389 11.4696 13.1116 11.4183 13.0089 11.3157C12.9061 11.213 12.8548 11.0857 12.8548 10.9339V10.2196H3.93994V10.9339C3.93994 11.086 3.88857 11.2133 3.78583 11.3159C3.68309 11.4184 3.55583 11.4696 3.40404 11.4696ZM2.67619 9.14822H14.1048C14.3071 9.14822 14.4768 9.07976 14.6137 8.94286C14.7506 8.80595 14.819 8.63631 14.819 8.43393V4.8625C14.819 4.66012 14.7506 4.49048 14.6137 4.35357C14.4768 4.21667 14.3071 4.14821 14.1048 4.14821C13.9024 4.14821 13.7327 4.21667 13.5958 4.35357C13.4589 4.49048 13.3905 4.66012 13.3905 4.8625V7.54107H3.39047V4.8625C3.39047 4.66012 3.32202 4.49048 3.18512 4.35357C3.04821 4.21667 2.87857 4.14821 2.67619 4.14821C2.47381 4.14821 2.30416 4.21667 2.16726 4.35357C2.03035 4.49048 1.9619 4.66012 1.9619 4.8625V8.43393C1.9619 8.63631 2.03035 8.80595 2.16726 8.94286C2.30416 9.07976 2.47381 9.14822 2.67619 9.14822ZM4.4619 6.46964H12.319V4.8625C12.319 4.57321 12.3845 4.30905 12.5155 4.07C12.6464 3.83095 12.819 3.63083 13.0333 3.46964V1.78571C13.0333 1.58333 12.9649 1.41369 12.828 1.27679C12.6911 1.13988 12.5214 1.07143 12.319 1.07143H4.4619C4.25952 1.07143 4.08988 1.13988 3.95297 1.27679C3.81607 1.41369 3.74762 1.58333 3.74762 1.78571V3.46964C3.9619 3.63083 4.13452 3.83095 4.26547 4.07C4.39643 4.30905 4.4619 4.57321 4.4619 4.8625V6.46964Z" fill="#724AFF"/>
</svg>
