<svg width="14" height="15" viewBox="0 0 14 15" fill="none" xmlns="http://www.w3.org/2000/svg">
<path d="M7.20839 15C5.34424 15 3.76453 14.3524 2.46925 13.0571C1.17396 11.7618 0.526321 10.1821 0.526321 8.31793C0.526321 6.81134 0.960953 5.3473 1.83022 3.9258C2.69948 2.5043 3.89141 1.25438 5.40602 0.176044C5.6926 -0.0352579 5.9933 -0.0563441 6.3081 0.112787C6.62275 0.281769 6.78007 0.541033 6.78007 0.890579V1.6461C6.78007 2.19091 7.00162 2.66697 7.44472 3.07428C7.88796 3.48144 8.41057 3.68502 9.01255 3.68502C9.27642 3.68502 9.53197 3.63365 9.77921 3.53089C10.0266 3.42813 10.2536 3.28135 10.4603 3.09054C10.5791 2.97056 10.7199 2.90062 10.8826 2.88072C11.0454 2.86068 11.197 2.90433 11.3375 3.01169C12.1359 3.63996 12.761 4.42094 13.2129 5.35465C13.6646 6.28851 13.8905 7.27627 13.8905 8.31793C13.8905 10.1821 13.2428 11.7618 11.9475 13.0571C10.6523 14.3524 9.07254 15 7.20839 15ZM1.86274 8.31793C1.86274 9.2157 2.07723 10.0513 2.50622 10.8246C2.93506 11.5979 3.52472 12.2216 4.27519 12.6956C4.20896 12.57 4.16152 12.4446 4.13286 12.3194C4.10435 12.1943 4.09009 12.0633 4.09009 11.9262C4.09009 11.5139 4.16924 11.1255 4.32753 10.7611C4.48567 10.3967 4.71264 10.0666 5.00843 9.77083L7.20839 7.60695L9.41682 9.77083C9.71276 10.0666 9.93839 10.3967 10.0937 10.7611C10.249 11.1255 10.3267 11.5139 10.3267 11.9262C10.3267 12.0633 10.3124 12.1943 10.2839 12.3194C10.2553 12.4446 10.2078 12.57 10.1416 12.6956C10.8921 12.2216 11.4817 11.5979 11.9106 10.8246C12.3396 10.0513 12.5541 9.2157 12.5541 8.31793C12.5541 7.57547 12.4167 6.87386 12.142 6.21307C11.8673 5.55229 11.4701 4.96204 10.9504 4.44232C10.6534 4.63536 10.3415 4.78014 10.0149 4.87666C9.68819 4.97318 9.35408 5.02144 9.01255 5.02144C8.08627 5.02144 7.28531 4.71703 6.60968 4.10822C5.93405 3.49941 5.54708 2.74382 5.44878 1.84144C4.29056 2.81583 3.40332 3.86039 2.78709 4.97511C2.17085 6.08997 1.86274 7.20425 1.86274 8.31793ZM7.20839 9.47615L5.9388 10.7235C5.77546 10.8868 5.64924 11.0724 5.56015 11.2803C5.47106 11.4882 5.42651 11.7035 5.42651 11.9262C5.42651 12.4014 5.60098 12.8098 5.94994 13.1513C6.29889 13.4928 6.71838 13.6636 7.20839 13.6636C7.69841 13.6636 8.1179 13.4928 8.46685 13.1513C8.8158 12.8098 8.99028 12.4014 8.99028 11.9262C8.99028 11.6887 8.94573 11.4696 8.85664 11.2692C8.76754 11.0687 8.64133 10.8868 8.47799 10.7235L7.20839 9.47615Z" fill="#FF4A4A"/>
</svg>
