<svg width="15" height="15" viewBox="0 0 15 15" fill="none" xmlns="http://www.w3.org/2000/svg">
<g clip-path="url(#clip0_1_104)">
<path d="M7.5 0C3.36437 0 0 3.36437 0 7.5C0 11.6356 3.36437 15 7.5 15C11.6356 15 15 11.6356 15 7.5C15 3.36437 11.6356 0 7.5 0ZM10 8.125H7.5C7.155 8.125 6.875 7.84562 6.875 7.5V3.75C6.875 3.40438 7.155 3.125 7.5 3.125C7.845 3.125 8.125 3.40438 8.125 3.75V6.875H10C10.3456 6.875 10.625 7.15438 10.625 7.5C10.625 7.84562 10.3456 8.125 10 8.125Z" fill="#C962E2"/>
</g>
<defs>
<clipPath id="clip0_1_104">
<rect width="15" height="15" fill="white"/>
</clipPath>
</defs>
</svg>
