<svg width="15" height="15" viewBox="0 0 15 15" fill="none" xmlns="http://www.w3.org/2000/svg">
<g clip-path="url(#clip0_1_99)">
<path d="M11.8531 5.29L14.9962 2.14688L14.1031 1.25375L10.9494 4.40688L9.57062 3.05938C9.34437 2.83947 9.04368 2.7127 8.72828 2.70425C8.41287 2.6958 8.10583 2.80628 7.86812 3.01375C6.70798 4.06428 5.35829 4.88411 3.89125 5.42938L-0.00375366 6.57125V7.04375C0.0219659 9.17685 0.89253 11.2127 2.41704 12.7049C3.94156 14.197 5.99559 15.0238 8.12875 15.0038H8.90437L9.0675 14.89C10.3418 14.0731 11.399 12.9594 12.1486 11.6443C12.8981 10.3293 13.3177 8.8521 13.3712 7.33938C13.376 7.16519 13.3445 6.99191 13.2788 6.83053C13.213 6.66915 13.1145 6.52318 12.9894 6.40188L11.8531 5.29ZM8.6875 3.9625L12.1106 7.30063C12.0919 7.93795 11.9962 8.57067 11.8256 9.185L7.46312 4.9375C7.88748 4.63342 8.29613 4.308 8.6875 3.9625ZM8.50375 13.7406H8.12875C7.20768 13.7407 6.29574 13.5582 5.44562 13.2038C6.53794 12.6549 7.47299 11.8377 8.16312 10.8288L8.48687 10.3538L7.44375 9.64375L7.12 10.1194C6.54942 10.9515 5.77697 11.6253 4.875 12.0775L4.10687 12.4638C3.48235 12.0241 2.93619 11.4826 2.49125 10.8619C3.51069 10.5167 4.44078 9.94954 5.21437 9.20125L4.3325 8.29813C3.63401 8.97477 2.78168 9.47172 1.84875 9.74625C1.52516 9.04175 1.33021 8.28504 1.27312 7.51188L4.245 6.64063C4.99656 6.39934 5.7152 6.06553 6.38437 5.64688L11.3287 10.4594C10.675 11.7709 9.70443 12.8987 8.505 13.7406H8.50375Z" fill="#6EC0ED"/>
</g>
<defs>
<clipPath id="clip0_1_99">
<rect width="15" height="15" fill="white"/>
</clipPath>
</defs>
</svg>
