<svg width="15" height="17" viewBox="0 0 15 17" fill="none" xmlns="http://www.w3.org/2000/svg">
<path d="M14.7876 11.4739C14.7068 11.2802 14.6261 11.0696 14.5454 10.8921C14.4162 10.6008 14.1573 10.0519 14.1573 10.0519C13.042 7.6275 11.8399 5.1749 10.586 2.7472C10.4757 2.534 10.2793 2.1492 10.1494 1.8909C9.98802 1.6003 9.82652 1.2929 9.56762 1.0023C9.05092 0.355799 8.30762 0 7.51592 0C6.70802 0 5.98081 0.3558 5.44741 0.9693C5.20451 1.2606 5.02702 1.5673 4.86552 1.8586C4.73642 2.1169 4.42892 2.7149 4.42892 2.7149C3.18452 5.1393 1.97232 7.5952 0.857716 10.0196C0.857716 10.0196 0.599415 10.5853 0.469515 10.8759C0.388815 11.0535 0.308116 11.2479 0.227416 11.4578C0.0175157 12.0558 -0.0470843 12.6215 0.0336157 13.2034C0.211216 14.4156 1.01912 15.4333 2.13442 15.886C2.55422 16.0636 2.99072 16.1444 3.44352 16.1444C3.57262 16.1444 3.73412 16.1282 3.86392 16.1121C4.39732 16.0475 4.94692 15.8699 5.47972 15.5625C6.14232 15.1905 6.77262 14.6577 7.48362 13.8821C8.19462 14.6577 8.84112 15.1912 9.48752 15.5625C10.0209 15.8699 10.5705 16.0475 11.1033 16.1121C11.2324 16.1282 11.3939 16.1444 11.5237 16.1444C11.9764 16.1444 12.4285 16.0636 12.8327 15.8854C13.9642 15.4327 14.7559 14.3987 14.9335 13.2027C15.0627 12.6377 14.9981 12.0719 14.7876 11.4739ZM7.49972 12.3141C6.62732 11.2149 6.06152 10.181 5.86782 9.3079C5.78712 8.9359 5.77092 8.613 5.81942 8.3224C5.85172 8.0641 5.94852 7.8374 6.07772 7.6437C6.38442 7.2071 6.90172 6.9327 7.49972 6.9327C8.09772 6.9327 8.63122 7.191 8.92182 7.6437C9.05092 7.8374 9.14782 8.0641 9.18012 8.3224C9.22852 8.613 9.21242 8.9527 9.13172 9.3079C8.93792 10.1649 8.37222 11.1995 7.49972 12.3141ZM13.9474 13.0736C13.8344 13.9137 13.2686 14.6409 12.4769 14.9645C12.0888 15.1259 11.669 15.1744 11.2486 15.1259C10.8443 15.0775 10.4407 14.9483 10.0203 14.7055C9.43842 14.3826 8.85652 13.8815 8.17782 13.1381C9.24472 11.8291 9.89112 10.6331 10.1333 9.5669C10.2463 9.0657 10.2624 8.613 10.214 8.1933C10.1494 7.789 10.0041 7.4177 9.77742 7.0941C9.27702 6.3676 8.43682 5.9472 7.49972 5.9472C6.56272 5.9472 5.72182 6.3837 5.22142 7.0948C4.99532 7.4177 4.84942 7.7896 4.78482 8.1939C4.72022 8.6144 4.73642 9.0825 4.86552 9.5675C5.10772 10.6337 5.77032 11.8459 6.82101 13.155C6.15841 13.8983 5.56042 14.3994 4.97852 14.7223C4.55812 14.9645 4.15452 15.0943 3.75022 15.1427C3.31362 15.1912 2.89392 15.1266 2.52192 14.9813C1.73012 14.6584 1.16442 13.9306 1.05142 13.0904C1.00302 12.6861 1.03532 12.2825 1.19671 11.8298C1.24512 11.6683 1.32592 11.5069 1.40662 11.3125C1.51962 11.0542 1.79472 10.4723 1.79472 10.4723C2.91002 8.0648 4.10542 5.6081 5.34982 3.2161C5.34982 3.2161 5.65662 2.6181 5.78642 2.3759C5.91562 2.1169 6.06091 1.8748 6.23912 1.6649C6.57882 1.2774 7.03092 1.0669 7.53202 1.0669C8.03322 1.0669 8.48522 1.2767 8.82492 1.6649C9.00252 1.8748 9.14782 2.1176 9.27762 2.3759C9.40682 2.6181 9.60592 3.0055 9.71422 3.2161C10.9459 5.6223 12.1385 8.0802 13.2532 10.4884C13.2532 10.4884 13.4953 11.0542 13.6252 11.3125C13.7059 11.5062 13.7866 11.6683 13.835 11.8298C13.9635 12.2495 14.012 12.6538 13.9474 13.0736Z" fill="#E14A4A"/>
</svg>
