<svg width="15" height="15" viewBox="0 0 15 15" fill="none" xmlns="http://www.w3.org/2000/svg">
<g clip-path="url(#clip0_1_95)">
<path d="M13.125 0H9.375C8.34125 0 7.5 0.84125 7.5 1.875V15H15V1.875C15 0.84125 14.1587 0 13.125 0ZM10.625 11.875H9.375V10.625H10.625V11.875ZM10.625 9.375H9.375V8.125H10.625V9.375ZM10.625 6.875H9.375V5.625H10.625V6.875ZM10.625 4.375H9.375V3.125H10.625V4.375ZM13.125 11.875H11.875V10.625H13.125V11.875ZM13.125 9.375H11.875V8.125H13.125V9.375ZM13.125 6.875H11.875V5.625H13.125V6.875ZM13.125 4.375H11.875V3.125H13.125V4.375ZM5.77375 3.765L4.42 2.41125C3.72813 1.71938 2.52125 1.71938 1.82875 2.41125L0.47625 3.765C0.17375 4.06687 0 4.48625 0 4.91437V15H6.25V4.91437C6.25 4.48625 6.07625 4.06687 5.77375 3.765ZM3.75 11.875H2.5V10.625H3.75V11.875ZM3.75 9.375H2.5V8.125H3.75V9.375ZM3.75 6.875H2.5V5.625H3.75V6.875Z" fill="#F0C75E"/>
</g>
<defs>
<clipPath id="clip0_1_95">
<rect width="15" height="15" fill="white"/>
</clipPath>
</defs>
</svg>
