<svg width="15" height="15" viewBox="0 0 15 15" fill="none" xmlns="http://www.w3.org/2000/svg">
<g clip-path="url(#clip0_1_102)">
<path d="M12.1875 15C12.0626 15.0001 11.9405 14.9628 11.837 14.8928C11.7335 14.8228 11.6534 14.7235 11.6069 14.6075L11.0794 13.2869L9.75688 12.73C9.64344 12.6799 9.54733 12.5974 9.48061 12.4929C9.4139 12.3883 9.37955 12.2664 9.38189 12.1424C9.38422 12.0184 9.42314 11.8979 9.49375 11.7959C9.56435 11.694 9.66351 11.6152 9.77876 11.5694L11.0838 11.075L11.6069 9.7675C11.655 9.65324 11.7357 9.55571 11.839 9.48714C11.9423 9.41856 12.0635 9.38198 12.1875 9.38198C12.3115 9.38198 12.4327 9.41856 12.536 9.48714C12.6393 9.55571 12.72 9.65324 12.7681 9.7675L13.2938 11.08L14.6063 11.6056C14.7208 11.6535 14.8185 11.7342 14.8873 11.8375C14.9561 11.9408 14.9928 12.0621 14.9928 12.1862C14.9928 12.3104 14.9561 12.4317 14.8873 12.535C14.8185 12.6383 14.7208 12.719 14.6063 12.7669L13.2938 13.2925L12.7681 14.605C12.7221 14.7214 12.6421 14.8213 12.5385 14.8918C12.435 14.9622 12.3127 14.9999 12.1875 15ZM6.25001 13.125C5.97999 13.1282 5.71618 13.044 5.49806 12.8848C5.27995 12.7256 5.11924 12.5 5.04001 12.2419L4.03126 9.0875L0.866883 8.02875C0.611485 7.94338 0.389832 7.77904 0.233938 7.55947C0.0780437 7.3399 -0.00402123 7.07645 -0.000404166 6.80719C0.0032129 6.53793 0.0923247 6.27678 0.254061 6.06148C0.415796 5.84617 0.641784 5.68785 0.899383 5.60937L4.03876 4.65062L5.09626 1.49187C5.17488 1.23242 5.33752 1.00646 5.5586 0.849531C5.77967 0.692607 6.04664 0.613621 6.31751 0.624996C6.58757 0.625361 6.85025 0.71318 7.06623 0.875307C7.28221 1.03743 7.43988 1.26515 7.51563 1.52437L8.47313 4.65875L11.6169 5.665C11.8705 5.75005 12.0909 5.91261 12.2471 6.12973C12.4033 6.34685 12.4873 6.60754 12.4873 6.875C12.4873 7.14245 12.4033 7.40315 12.2471 7.62026C12.0909 7.83738 11.8705 7.99995 11.6169 8.085L8.46751 9.0925L7.46001 12.2419C7.38077 12.5 7.22007 12.7256 7.00195 12.8848C6.78383 13.044 6.52002 13.1282 6.25001 13.125ZM12.8125 4.375C12.6732 4.37499 12.5378 4.32843 12.428 4.24271C12.3182 4.15699 12.2401 4.03702 12.2063 3.90187L11.9831 3.00812L11.0875 2.7675C10.9529 2.73133 10.8342 2.6512 10.7504 2.53985C10.6665 2.4285 10.6223 2.29232 10.6248 2.15295C10.6272 2.01358 10.6762 1.87903 10.7639 1.77069C10.8516 1.66234 10.973 1.58642 11.1088 1.555L11.9838 1.35187L12.2063 0.473121C12.2401 0.337979 12.3182 0.218028 12.428 0.13232C12.5379 0.0466118 12.6732 6.10352e-05 12.8125 6.10352e-05C12.9518 6.10352e-05 13.0872 0.0466118 13.197 0.13232C13.3068 0.218028 13.3849 0.337979 13.4188 0.473121L13.64 1.35937L14.5263 1.58125C14.6614 1.61512 14.7814 1.69317 14.8671 1.80301C14.9528 1.91285 14.9993 2.04817 14.9993 2.1875C14.9993 2.32682 14.9528 2.46214 14.8671 2.57198C14.7814 2.68182 14.6614 2.75988 14.5263 2.79375L13.64 3.01562L13.4188 3.90187C13.3849 4.03702 13.3069 4.15699 13.197 4.24271C13.0872 4.32843 12.9518 4.37499 12.8125 4.375Z" fill="#7380F4"/>
</g>
<defs>
<clipPath id="clip0_1_102">
<rect width="15" height="15" fill="white"/>
</clipPath>
</defs>
</svg>
