<svg width="16" height="16" viewBox="0 0 16 16" fill="none" xmlns="http://www.w3.org/2000/svg">
<circle cx="8.32643" cy="1.51579" r="0.960234" fill="#35404E" stroke="#FF9F4A" stroke-width="1.11111"/>
<path d="M9.87719 12.848L12.4607 9.40334C12.7084 9.07295 13.2173 9.11883 13.402 9.48822L15.1243 12.9328C15.309 13.3022 15.0404 13.7368 14.6274 13.7368H10.3216C9.86383 13.7368 9.60251 13.2142 9.87719 12.848Z" fill="#35404E"/>
<path d="M1.1114 14.8049C1.00366 15.0922 1.14922 15.4125 1.43651 15.5202C1.7238 15.6279 2.04403 15.4824 2.15176 15.1951L1.1114 14.8049ZM4.0465 10.1424C4.15423 9.85515 4.00867 9.53492 3.72138 9.42719C3.4341 9.31946 3.11387 9.46502 3.00613 9.75231L4.0465 10.1424ZM7.23977 11.2105C7.23977 10.9037 6.99103 10.655 6.68421 10.655C6.37739 10.655 6.12865 10.9037 6.12865 11.2105H7.23977ZM6.12865 15C6.12865 15.3068 6.37739 15.5556 6.68421 15.5556C6.99103 15.5556 7.23977 15.3068 7.23977 15H6.12865ZM1.28583 5.04994C1.02273 4.89208 0.681475 4.97739 0.523615 5.24049C0.365755 5.50359 0.451069 5.84485 0.714169 6.00271L1.28583 5.04994ZM12.4607 9.40334L12.0162 9.07001V9.07001L12.4607 9.40334ZM9.87719 12.848L10.3216 13.1813L9.87719 12.848ZM15.1243 12.9328L14.6274 13.1813L14.6274 13.1813L15.1243 12.9328ZM13.402 9.48822L13.8989 9.23977L13.8989 9.23977L13.402 9.48822ZM2.15176 15.1951L4.0465 10.1424L3.00613 9.75231L1.1114 14.8049L2.15176 15.1951ZM6.12865 11.2105V15H7.23977V11.2105H6.12865ZM0.714169 6.00271L10.1879 11.6869L10.7595 10.7341L1.28583 5.04994L0.714169 6.00271ZM12.0162 9.07001L9.43275 12.5146L10.3216 13.1813L12.9051 9.73668L12.0162 9.07001ZM10.3216 14.2924H14.6274V13.1813H10.3216V14.2924ZM15.6212 12.6844L13.8989 9.23977L12.9051 9.73668L14.6274 13.1813L15.6212 12.6844ZM14.6274 14.2924C15.4534 14.2924 15.9906 13.4232 15.6212 12.6844L14.6274 13.1813L14.6274 13.1813V14.2924ZM9.43275 12.5146C8.88338 13.2471 9.40604 14.2924 10.3216 14.2924V13.1813L10.3216 13.1813L9.43275 12.5146ZM12.9051 9.73668L13.8989 9.23977C13.5295 8.50099 12.5118 8.40923 12.0162 9.07001L12.9051 9.73668Z" fill="#FF9F4A"/>
<path d="M9.20868 8.05265C9.20868 7.42108 8.7308 5.67992 7.94552 4.89476C7.16024 4.1096 6.05236 4.26297 5.42106 4.89482C4.79009 5.52633 4.1579 7.00009 4.1579 7.42113" stroke="#FF9F4A" stroke-width="1.11111" stroke-linecap="round"/>
</svg>
