<svg width="127" height="29" viewBox="0 0 127 29" fill="none" xmlns="http://www.w3.org/2000/svg">
<g clip-path="url(#clip0_3499_1470)">
<path d="M39.8381 5.73096V8.36289H34.4089V11.2141H38.5109V13.773H34.4089V19.2318H31.1514V5.73096H39.8381Z" fill="black"/>
<path d="M43.7712 5V19.2563H40.5137V5H43.7712Z" fill="black"/>
<path d="M45.0741 10.9704C45.5084 10.1418 46.0634 9.50817 46.7631 9.04515C47.4629 8.58212 48.2833 8.36279 49.152 8.36279C49.9 8.36279 50.5515 8.50901 51.1306 8.82582C51.6856 9.14262 52.1199 9.53254 52.4336 10.0443V8.50901H55.6911V19.2317H52.4095V17.6964C52.0958 18.1838 51.6373 18.5981 51.0582 18.9149C50.4791 19.2317 49.8276 19.3779 49.0796 19.3779C48.2351 19.3779 47.4146 19.1586 46.7149 18.6956C46.0151 18.2325 45.436 17.5989 45.0258 16.746C44.5915 15.893 44.3984 14.9183 44.3984 13.8216C44.4226 12.7493 44.6397 11.7746 45.0741 10.9704ZM51.7339 11.9208C51.2754 11.4578 50.7445 11.2141 50.0689 11.2141C49.3933 11.2141 48.8624 11.4578 48.404 11.9208C47.9455 12.3838 47.7283 13.0174 47.7283 13.846C47.7283 14.6746 47.9455 15.3082 48.404 15.7956C48.8624 16.2586 49.3933 16.5023 50.0689 16.5023C50.7445 16.5023 51.2754 16.2586 51.7339 15.7956C52.1923 15.3325 52.4095 14.6989 52.4095 13.846C52.4095 13.0662 52.1923 12.3838 51.7339 11.9208Z" fill="black"/>
<path d="M58.8282 18.9149C58.0802 18.5981 57.5252 18.1594 57.0909 17.5989C56.6565 17.0384 56.4152 16.4292 56.3911 15.7225H59.6004C59.6245 16.088 59.8175 16.4048 60.1312 16.6241C60.4449 16.8435 60.8068 16.9897 61.2653 16.9897C61.6996 16.9897 61.9651 16.9166 62.2064 16.746C62.4235 16.5754 62.5201 16.3804 62.5201 16.1124C62.5201 15.7956 62.3511 15.5762 62.0375 15.43C61.7238 15.2838 61.1929 15.1132 60.4932 14.9426C59.721 14.772 59.0936 14.5771 58.5869 14.3821C58.1043 14.1628 57.6459 13.8947 57.2839 13.4561C56.922 13.0174 56.7289 12.4569 56.7289 11.7014C56.7289 11.0922 56.8978 10.5317 57.2115 10.0199C57.5735 9.53254 58.0561 9.11826 58.6834 8.80145C59.3591 8.50901 60.1312 8.36279 60.9999 8.36279C62.3511 8.36279 63.3887 8.6796 64.1367 9.36195C64.9089 10.0443 65.3432 10.9216 65.488 12.0426H62.4959C62.4718 11.6771 62.2788 11.3603 62.0133 11.1409C61.7238 10.9216 61.386 10.8241 60.9275 10.8241C60.5414 10.8241 60.2519 10.8972 60.0347 11.0435C59.8175 11.1897 59.721 11.409 59.721 11.6527C59.721 11.9695 59.8899 12.1888 60.2036 12.3351C60.5173 12.4813 61.024 12.6519 61.7238 12.7981C62.4959 13.0174 63.1716 13.188 63.6541 13.4073C64.1367 13.6267 64.5711 13.9435 64.9572 14.3578C65.3432 14.772 65.5121 15.3813 65.5121 16.1367C65.5121 16.7704 65.3432 17.3065 64.9813 17.8183C64.6193 18.3057 64.1367 18.7199 63.4611 18.988C62.7855 19.2804 62.0616 19.4267 61.1688 19.4267C60.3725 19.4023 59.5762 19.2317 58.8282 18.9149Z" fill="black"/>
<path d="M76.0328 9.60588C76.7808 10.4345 77.1186 11.5311 77.1186 12.9445V19.2076H73.8611V13.4076C73.8611 12.7008 73.6922 12.116 73.3061 11.7261C72.9442 11.3361 72.4616 11.1168 71.8342 11.1168C71.2068 11.1168 70.7001 11.3361 70.3623 11.7261C70.0004 12.116 69.8073 12.6765 69.8073 13.4076V19.2563H66.5498V5H69.8073V9.94706C70.121 9.48403 70.5795 9.09412 71.1586 8.80168C71.7136 8.50924 72.3651 8.36303 73.0889 8.36303C74.3196 8.3874 75.3089 8.77731 76.0328 9.60588Z" fill="black"/>
<path d="M90.2209 9.99575C89.9796 9.53273 89.6177 9.21592 89.2075 8.97222C88.749 8.72853 88.2182 8.60668 87.6149 8.60668C86.5532 8.60668 85.7087 8.97222 85.0813 9.63021C84.4539 10.3369 84.1402 11.263 84.1402 12.4571C84.1402 13.7 84.4539 14.6747 85.1296 15.3815C85.8052 16.0882 86.7221 16.405 87.8803 16.405C88.7008 16.405 89.3523 16.1857 89.9314 15.7958C90.4863 15.3571 90.8724 14.7966 91.1378 14.0168H87.0117V11.6042H94.1058V14.6747C93.8645 15.5033 93.4784 16.2344 92.8752 16.9655C92.3202 17.6722 91.5722 18.2571 90.6794 18.6714C89.7866 19.11 88.7731 19.305 87.6873 19.305C86.3843 19.305 85.1778 19.0126 84.1644 18.4033C83.1509 17.8428 82.3305 17.0142 81.7273 15.9907C81.124 14.9672 80.8345 13.7731 80.8345 12.4327C80.8345 11.1168 81.124 9.89827 81.7273 8.87474C82.2823 7.85121 83.1027 7.02264 84.1161 6.4134C85.1296 5.8529 86.3119 5.51172 87.639 5.51172C89.2316 5.51172 90.607 5.90163 91.6928 6.68147C92.7787 7.4613 93.5267 8.53357 93.8886 9.92264H90.245L90.2209 9.99575Z" fill="black"/>
<path d="M105.326 8.50928V19.232H102.068V17.7698C101.755 18.2328 101.296 18.6227 100.717 18.9152C100.162 19.2076 99.5106 19.3538 98.8591 19.3538C98.0387 19.3538 97.3389 19.1832 96.7115 18.8177C96.0842 18.4521 95.6257 17.916 95.2638 17.2093C94.9018 16.5269 94.7329 15.7227 94.7329 14.7479V8.50928H97.9904V14.358C97.9904 15.0647 98.1593 15.6496 98.5454 16.0395C98.9073 16.4294 99.3899 16.6488 100.017 16.6488C100.645 16.6488 101.151 16.4294 101.537 16.0395C101.924 15.6496 102.092 15.0891 102.092 14.358V8.50928H105.326Z" fill="black"/>
<path d="M117.463 8.50928L110.803 24.3252H107.305L109.742 18.8664L105.398 8.50928H109.042L111.503 15.211L113.94 8.50928H117.463Z" fill="black"/>
<path d="M119.442 18.9149C118.694 18.5981 118.139 18.1594 117.705 17.5989C117.27 17.0384 117.029 16.4292 117.005 15.7225H120.214C120.238 16.088 120.431 16.4048 120.745 16.6241C121.059 16.8435 121.421 16.9897 121.879 16.9897C122.313 16.9897 122.579 16.9166 122.82 16.746C123.037 16.5754 123.134 16.3804 123.134 16.1124C123.134 15.7956 122.965 15.5762 122.675 15.43C122.362 15.2838 121.831 15.1132 121.131 14.9426C120.359 14.772 119.732 14.5771 119.225 14.3821C118.742 14.1628 118.284 13.8947 117.922 13.4561C117.56 13.0174 117.367 12.4569 117.367 11.7014C117.367 11.0922 117.536 10.5317 117.849 10.0199C118.211 9.53254 118.694 9.11826 119.321 8.80145C119.997 8.50901 120.769 8.36279 121.638 8.36279C122.989 8.36279 124.027 8.6796 124.775 9.36195C125.547 10.0443 125.981 10.9216 126.126 12.0426H123.134C123.11 11.6771 122.917 11.3603 122.651 11.1409C122.362 10.9216 122.024 10.8241 121.565 10.8241C121.179 10.8241 120.89 10.8972 120.673 11.0435C120.455 11.1897 120.359 11.409 120.359 11.6527C120.359 11.9695 120.528 12.1888 120.842 12.3351C121.155 12.4813 121.662 12.6519 122.362 12.7981C123.134 13.0174 123.809 13.188 124.292 13.4073C124.775 13.6267 125.209 13.9435 125.595 14.3578C125.981 14.7964 126.15 15.3813 126.15 16.1367C126.15 16.7704 125.981 17.3065 125.619 17.8183C125.257 18.3057 124.775 18.7199 124.099 18.988C123.423 19.2804 122.699 19.4267 121.807 19.4267C120.986 19.4023 120.166 19.2317 119.442 18.9149Z" fill="black"/>
<path d="M16.0945 1.26113L9.33819 9.10819L3.25751 16.1511L0 19.441V9.25441C0 8.66954 0.144778 8.1334 0.361945 7.62164C0.675631 6.89055 1.23061 6.2813 1.9545 5.86702L10.979 0.530042C12.1614 -0.176681 13.6574 -0.176681 14.8398 0.530042L16.0945 1.26113Z" fill="url(#paint0_linear_3499_1470)"/>
<path d="M10.5447 16.1499L8.20409 26.7995L1.9545 23.1928C1.37539 22.876 0.916928 22.3886 0.603242 21.8524C0.217167 21.2432 0 20.5365 0 19.8054V19.4886L3.25751 16.1986C3.25751 16.1499 10.5447 16.1499 10.5447 16.1499Z" fill="url(#paint1_linear_3499_1470)"/>
<path opacity="0.37" d="M0.0723891 9.98551C0.0723891 8.59643 0.79628 7.28046 2.02689 6.59811L11.0755 1.26113C12.2579 0.554412 13.7539 0.554412 14.9363 1.26113L15.7084 1.69979L16.1186 1.23676L14.9121 0.530042C13.7298 -0.176681 12.2337 -0.176681 11.0514 0.530042L1.9545 5.79391C0.723891 6.50063 0 7.79223 0 9.25441V19.4897L0.0723891 19.4166V9.98551Z" fill="url(#paint2_linear_3499_1470)"/>
<path d="M5.47744 16.1499C4.36747 17.2709 2.00276 19.7079 0.579112 21.8281C0.217167 21.2432 0 20.5365 0 19.8054V19.4886L3.25751 16.1986C3.25751 16.1499 5.47744 16.1499 5.47744 16.1499Z" fill="#C64646"/>
<path d="M9.77246 27.7501L16.5288 19.903L22.6095 12.8358L25.867 9.5459V19.8056C25.867 20.3904 25.7222 20.9266 25.505 21.4383C25.1913 22.1694 24.6363 22.7787 23.9125 23.193L14.8638 28.4568C13.6815 29.1635 12.1854 29.1635 11.0031 28.4568L9.77246 27.7501Z" fill="url(#paint3_linear_3499_1470)"/>
<path d="M15.3223 12.7868L17.687 2.16162L23.9366 5.79271C24.5157 6.10952 24.9741 6.59692 25.2878 7.13305C25.6739 7.74229 25.8911 8.44902 25.8911 9.20448V9.52129L22.6336 12.8356L15.3223 12.7868Z" fill="url(#paint4_linear_3499_1470)"/>
<path opacity="0.37" d="M25.7944 19.0501C25.7944 20.4391 25.0705 21.7551 23.8399 22.4375L14.7912 27.7013C13.6089 28.408 12.1128 28.408 10.9305 27.7013L10.2066 27.2627L9.79639 27.7257L11.0029 28.4324C12.1852 29.1391 13.6813 29.1391 14.8636 28.4324L23.9123 23.1685C25.0946 22.4618 25.8668 21.1702 25.8668 19.7811V9.52148L25.7944 9.59459V19.0501Z" fill="url(#paint5_linear_3499_1470)"/>
<path d="M20.4136 12.7866C21.5235 11.6656 23.8882 9.22861 25.3119 7.13281C25.698 7.74206 25.9151 8.44878 25.9151 9.20424V9.52105L22.6576 12.8353L20.4136 12.7866Z" fill="#C64646"/>
</g>
<defs>
<linearGradient id="paint0_linear_3499_1470" x1="-7.94344" y1="24.2603" x2="17.8033" y2="-6.84122" gradientUnits="userSpaceOnUse">
<stop offset="0.2101" stop-color="#F45959"/>
<stop offset="0.9073" stop-color="#FFCE50"/>
</linearGradient>
<linearGradient id="paint1_linear_3499_1470" x1="25.2576" y1="1.77789" x2="-7.99695" y2="34.7048" gradientUnits="userSpaceOnUse">
<stop offset="0.2101" stop-color="#F45959"/>
<stop offset="0.9073" stop-color="#FFCE50"/>
</linearGradient>
<linearGradient id="paint2_linear_3499_1470" x1="8.35599" y1="13.0086" x2="7.1236" y2="2.2349" gradientUnits="userSpaceOnUse">
<stop offset="0.000671548" stop-color="#F45959" stop-opacity="0"/>
<stop offset="1" stop-color="#F45959"/>
</linearGradient>
<linearGradient id="paint3_linear_3499_1470" x1="7.57256" y1="37.1039" x2="33.3193" y2="6.00242" gradientUnits="userSpaceOnUse">
<stop offset="0.2101" stop-color="#F45959"/>
<stop offset="0.9073" stop-color="#FFCE50"/>
</linearGradient>
<linearGradient id="paint4_linear_3499_1470" x1="25.5411" y1="2.06426" x2="-7.71344" y2="34.9912" gradientUnits="userSpaceOnUse">
<stop offset="0.2101" stop-color="#F45959"/>
<stop offset="0.9073" stop-color="#FFCE50"/>
</linearGradient>
<linearGradient id="paint5_linear_3499_1470" x1="11.2488" y1="31.4262" x2="27.9237" y2="13.5005" gradientUnits="userSpaceOnUse">
<stop offset="0.000671548" stop-color="#F45959" stop-opacity="0"/>
<stop offset="1" stop-color="#F45959"/>
</linearGradient>
<clipPath id="clip0_3499_1470">
<rect width="126.15" height="28.987" fill="white"/>
</clipPath>
</defs>
</svg>
