<svg width="44" height="44" viewBox="0 0 44 44" fill="none" xmlns="http://www.w3.org/2000/svg">
<path d="M7.14474 37.9179H11.6723V33.8866C11.6723 33.5059 11.8011 33.1867 12.0588 32.929C12.3162 32.6716 12.6355 32.5429 13.0165 32.5429C13.3975 32.5429 13.7166 32.6716 13.9737 32.929C14.2311 33.1867 14.3598 33.5059 14.3598 33.8866V37.9179H20.4582V33.8866C20.4582 33.5059 20.587 33.1867 20.8447 32.929C21.1024 32.6716 21.4216 32.5429 21.8024 32.5429C22.1834 32.5429 22.5025 32.6716 22.7596 32.929C23.017 33.1867 23.1457 33.5059 23.1457 33.8866V37.9179H29.2441V33.8866C29.2441 33.5059 29.3729 33.1867 29.6306 32.929C29.8883 32.6716 30.2077 32.5429 30.5887 32.5429C30.9694 32.5429 31.2885 32.6716 31.5459 32.929C31.803 33.1867 31.9316 33.5059 31.9316 33.8866V37.9179H36.4591C36.6427 37.9179 36.792 37.8461 36.907 37.7024C37.022 37.5588 37.0506 37.4008 36.993 37.2285L34.9949 29.8554H8.60898L6.61082 37.2285C6.55319 37.4008 6.58186 37.5588 6.69682 37.7024C6.81179 37.8461 6.96109 37.9179 7.14474 37.9179ZM36.5971 40.6054H7.00678C5.9915 40.6054 5.16584 40.1999 4.5298 39.3888C3.89346 38.5781 3.7131 37.6742 3.98872 36.6771L6.46928 27.4608V23.4811C6.46928 22.6106 6.77431 21.8704 7.38437 21.2603C7.99414 20.6505 8.73425 20.3457 9.6047 20.3457H17.0473V7.52852C17.0473 6.20776 17.5095 5.08499 18.434 4.16019C19.3585 3.23569 20.4812 2.77344 21.8019 2.77344C23.1227 2.77344 24.2453 3.23569 25.1698 4.16019C26.0943 5.08499 26.5566 6.20776 26.5566 7.52852V20.3457H33.9991C34.8696 20.3457 35.6097 20.6505 36.2195 21.2603C36.8295 21.8704 37.1346 22.6106 37.1346 23.4811V27.4608L39.6151 36.7116C39.946 37.6971 39.7886 38.5924 39.143 39.3978C38.4977 40.2028 37.6491 40.6054 36.5971 40.6054Z" fill="#313131"/>
</svg>
