<svg width="44" height="44" viewBox="0 0 44 44" fill="none" xmlns="http://www.w3.org/2000/svg">
<path d="M9.8937 36.3329C9.51238 36.3329 9.19316 36.2044 8.93606 35.9473C8.67865 35.6899 8.54995 35.3705 8.54995 34.9892V33.1975H8.06755C6.81577 33.1975 5.7563 32.7639 4.88913 31.8968C4.02196 31.0299 3.58838 29.9704 3.58838 28.7183V19.76C3.58838 18.8896 3.89326 18.1494 4.50302 17.5397C5.11309 16.9296 5.85334 16.6246 6.7238 16.6246C7.59425 16.6246 8.3345 16.9296 8.94457 17.5397C9.55433 18.1494 9.85921 18.8896 9.85921 19.76V26.4788H34.9425V19.76C34.9425 18.8896 35.2474 18.1494 35.8572 17.5397C36.4673 16.9296 37.2075 16.6246 38.078 16.6246C38.9484 16.6246 39.6887 16.9296 40.2987 17.5397C40.9085 18.1494 41.2134 18.8896 41.2134 19.76V28.7183C41.2134 29.9704 40.7798 31.0299 39.9126 31.8968C39.0455 32.7639 37.986 33.1975 36.7342 33.1975H36.2518V34.9892C36.2518 35.3592 36.1261 35.6755 35.8747 35.9383C35.6229 36.2014 35.3122 36.3329 34.9425 36.3329C34.5612 36.3329 34.242 36.2044 33.9849 35.9473C33.7275 35.6899 33.5988 35.3705 33.5988 34.9892V33.1975H11.2375V34.9892C11.2375 35.3705 11.1087 35.6899 10.8513 35.9473C10.5942 36.2044 10.275 36.3329 9.8937 36.3329ZM12.5467 23.7913V19.76C12.5467 18.3819 12.1299 17.1497 11.2961 16.0633C10.4621 14.9767 9.38591 14.2681 8.06755 13.9375V12.0424C8.06755 10.7903 8.50113 9.73085 9.3683 8.86398C10.2355 7.99681 11.2949 7.56323 12.5467 7.56323H32.255C33.5068 7.56323 34.5663 7.99681 35.4335 8.86398C36.3006 9.73085 36.7342 10.7903 36.7342 12.0424V13.9375C35.3973 14.206 34.3167 14.8898 33.4922 15.989C32.6674 17.0882 32.255 18.3452 32.255 19.76V23.7913H12.5467Z" fill="#313131"/>
</svg>
