<svg width="44" height="44" viewBox="0 0 44 44" fill="none" xmlns="http://www.w3.org/2000/svg">
<path d="M38.0487 25.6359L25.9446 37.7399C25.6191 38.0636 25.2529 38.3066 24.8459 38.4687C24.4389 38.6305 24.033 38.7115 23.6284 38.7115C23.2235 38.7115 22.8186 38.6305 22.4137 38.4687C22.0088 38.3066 21.6445 38.0636 21.3208 37.7399L5.92272 22.3589C5.61724 22.0651 5.38343 21.7202 5.22129 21.3242C5.05944 20.9283 4.97852 20.5117 4.97852 20.0745V7.92571C4.97852 7.03047 5.29489 6.26393 5.92765 5.6261C6.56071 4.98857 7.32963 4.6698 8.23442 4.6698H20.3833C20.816 4.6698 21.2351 4.75759 21.6406 4.93318C22.0464 5.10846 22.398 5.34451 22.6954 5.64133L38.0487 21.0223C38.3768 21.3478 38.6162 21.7139 38.7667 22.1206C38.9172 22.5276 38.9924 22.9357 38.9924 23.3448C38.9924 23.7539 38.9172 24.1561 38.7667 24.5515C38.6162 24.9471 38.3768 25.3086 38.0487 25.6359ZM12.19 14.1276C12.8147 14.1276 13.3453 13.9099 13.7819 13.4745C14.2181 13.0391 14.4363 12.5103 14.4363 11.888C14.4363 11.2612 14.2186 10.7285 13.7832 10.2898C13.3478 9.85085 12.819 9.63137 12.1967 9.63137C11.5699 9.63137 11.0372 9.8501 10.5985 10.2876C10.1596 10.725 9.94009 11.2563 9.94009 11.8813C9.94009 12.506 10.1588 13.0366 10.5963 13.4732C11.0338 13.9094 11.565 14.1276 12.19 14.1276ZM24.9417 29.8597L29.6484 25.067C29.9423 24.7732 30.1719 24.4282 30.3373 24.0319C30.5028 23.6356 30.5855 23.2067 30.5855 22.745C30.5855 21.8561 30.2709 21.0906 29.6417 20.4486C29.0125 19.8065 28.2521 19.4855 27.3605 19.4855C26.7853 19.4855 26.2178 19.6441 25.6579 19.9612C25.0977 20.2781 24.4754 20.8247 23.791 21.6011C23.0331 20.7879 22.389 20.2321 21.8587 19.9335C21.3287 19.6348 20.783 19.4855 20.2216 19.4855C19.3299 19.4855 18.5695 19.8065 17.9403 20.4486C17.3112 21.0906 16.9966 21.8561 16.9966 22.745C16.9966 23.2067 17.0793 23.6356 17.2447 24.0319C17.4101 24.4282 17.6398 24.7732 17.9336 25.067L22.6403 29.8597C22.964 30.1837 23.3476 30.3457 23.791 30.3457C24.2345 30.3457 24.618 30.1837 24.9417 29.8597Z" fill="#313131"/>
</svg>
