<svg width="14" height="13" viewBox="0 0 14 13" fill="none" xmlns="http://www.w3.org/2000/svg">
<path d="M6.70551 0.458486C6.84327 0.244019 7.15673 0.244018 7.29449 0.458485L9.31271 3.60065C9.36011 3.67444 9.43348 3.72775 9.51831 3.75003L13.1303 4.69849C13.3769 4.76322 13.4738 5.06135 13.3124 5.25863L10.9476 8.14906C10.8921 8.21694 10.8641 8.3032 10.8691 8.39075L11.0833 12.1191C11.0979 12.3736 10.8443 12.5578 10.6068 12.4653L7.12707 11.1095C7.04535 11.0777 6.95465 11.0777 6.87293 11.1095L3.39324 12.4653C3.15573 12.5578 2.90213 12.3736 2.91675 12.1191L3.13089 8.39075C3.13592 8.3032 3.10789 8.21694 3.05236 8.14906L0.687648 5.25863C0.526246 5.06135 0.623113 4.76322 0.869651 4.69849L4.48169 3.75003C4.56652 3.72775 4.63989 3.67444 4.68729 3.60065L6.70551 0.458486Z" fill="#F8C719"/>
</svg>
