<svg width="78" height="15" viewBox="0 0 78 15" fill="none" xmlns="http://www.w3.org/2000/svg">
<path d="M6.70551 0.648427C6.84327 0.43396 7.15673 0.43396 7.29449 0.648427L9.31271 3.79059C9.36011 3.86438 9.43348 3.91769 9.51831 3.93997L13.1303 4.88843C13.3769 4.95317 13.4738 5.25129 13.3124 5.44858L10.9476 8.339C10.8921 8.40688 10.8641 8.49314 10.8691 8.5807L11.0833 12.309C11.0979 12.5635 10.8443 12.7478 10.6068 12.6552L7.12707 11.2994C7.04535 11.2676 6.95465 11.2676 6.87293 11.2994L3.39324 12.6552C3.15573 12.7478 2.90213 12.5635 2.91675 12.309L3.13089 8.5807C3.13592 8.49314 3.10789 8.40688 3.05236 8.339L0.687648 5.44858C0.526246 5.25129 0.623113 4.95317 0.869651 4.88843L4.48169 3.93997C4.56652 3.91769 4.63989 3.86438 4.68729 3.79059L6.70551 0.648427Z" fill="#F8C719"/>
<path d="M22.7055 0.648427C22.8433 0.43396 23.1567 0.43396 23.2945 0.648427L25.3127 3.79059C25.3601 3.86438 25.4335 3.91769 25.5183 3.93997L29.1303 4.88843C29.3769 4.95317 29.4738 5.25129 29.3124 5.44858L26.9476 8.339C26.8921 8.40688 26.8641 8.49314 26.8691 8.5807L27.0833 12.309C27.0979 12.5635 26.8443 12.7478 26.6068 12.6552L23.1271 11.2994C23.0453 11.2676 22.9547 11.2676 22.8729 11.2994L19.3932 12.6552C19.1557 12.7478 18.9021 12.5635 18.9167 12.309L19.1309 8.5807C19.1359 8.49314 19.1079 8.40688 19.0524 8.339L16.6876 5.44858C16.5262 5.25129 16.6231 4.95317 16.8697 4.88843L20.4817 3.93997C20.5665 3.91769 20.6399 3.86438 20.6873 3.79059L22.7055 0.648427Z" fill="#F8C719"/>
<path d="M38.7055 0.648427C38.8433 0.43396 39.1567 0.43396 39.2945 0.648427L41.3127 3.79059C41.3601 3.86438 41.4335 3.91769 41.5183 3.93997L45.1303 4.88843C45.3769 4.95317 45.4738 5.25129 45.3124 5.44858L42.9476 8.339C42.8921 8.40688 42.8641 8.49314 42.8691 8.5807L43.0833 12.309C43.0979 12.5635 42.8443 12.7478 42.6068 12.6552L39.1271 11.2994C39.0453 11.2676 38.9547 11.2676 38.8729 11.2994L35.3932 12.6552C35.1557 12.7478 34.9021 12.5635 34.9167 12.309L35.1309 8.5807C35.1359 8.49314 35.1079 8.40688 35.0524 8.339L32.6876 5.44858C32.5262 5.25129 32.6231 4.95317 32.8697 4.88843L36.4817 3.93997C36.5665 3.91769 36.6399 3.86438 36.6873 3.79059L38.7055 0.648427Z" fill="#F8C719"/>
<path d="M54.7055 0.648427C54.8433 0.43396 55.1567 0.43396 55.2945 0.648427L57.3127 3.79059C57.3601 3.86438 57.4335 3.91769 57.5183 3.93997L61.1303 4.88843C61.3769 4.95317 61.4738 5.25129 61.3124 5.44858L58.9476 8.339C58.8921 8.40688 58.8641 8.49314 58.8691 8.5807L59.0833 12.309C59.0979 12.5635 58.8443 12.7478 58.6068 12.6552L55.1271 11.2994C55.0453 11.2676 54.9547 11.2676 54.8729 11.2994L51.3932 12.6552C51.1557 12.7478 50.9021 12.5635 50.9167 12.309L51.1309 8.5807C51.1359 8.49314 51.1079 8.40688 51.0524 8.339L48.6876 5.44858C48.5262 5.25129 48.6231 4.95317 48.8697 4.88843L52.4817 3.93997C52.5665 3.91769 52.6399 3.86438 52.6873 3.79059L54.7055 0.648427Z" fill="#F8C719"/>
<path d="M70.7055 0.648427C70.8433 0.43396 71.1567 0.43396 71.2945 0.648427L73.3127 3.79059C73.3601 3.86438 73.4335 3.91769 73.5183 3.93997L77.1303 4.88843C77.3769 4.95317 77.4738 5.25129 77.3124 5.44858L74.9476 8.339C74.8921 8.40688 74.8641 8.49314 74.8691 8.5807L75.0833 12.309C75.0979 12.5635 74.8443 12.7478 74.6068 12.6552L71.1271 11.2994C71.0453 11.2676 70.9547 11.2676 70.8729 11.2994L67.3932 12.6552C67.1557 12.7478 66.9021 12.5635 66.9167 12.309L67.1309 8.5807C67.1359 8.49314 67.1079 8.40688 67.0524 8.339L64.6876 5.44858C64.5262 5.25129 64.6231 4.95317 64.8697 4.88843L68.4817 3.93997C68.5665 3.91769 68.6399 3.86438 68.6873 3.79059L70.7055 0.648427Z" fill="#F8C719"/>
</svg>
