<svg width="44" height="44" viewBox="0 0 44 44" fill="none" xmlns="http://www.w3.org/2000/svg">
<path d="M20.3196 28.5255L26.9076 21.9375C27.1739 21.6711 27.4949 21.535 27.8706 21.529C28.2459 21.5233 28.5726 21.6595 28.8506 21.9375C29.1286 22.2155 29.2676 22.5394 29.2676 22.909C29.2676 23.2787 29.1286 23.6026 28.8506 23.8806L21.4533 31.2784C21.1293 31.602 20.7514 31.7639 20.3196 31.7639C19.8878 31.7639 19.5099 31.602 19.1859 31.2784L15.5511 27.6431C15.2847 27.3767 15.1485 27.0557 15.1426 26.68C15.1369 26.3047 15.2731 25.978 15.5511 25.7C15.8291 25.422 16.1529 25.283 16.5226 25.283C16.8923 25.283 17.2161 25.422 17.4941 25.7L20.3196 28.5255ZM10.2106 38.7102C9.30547 38.7102 8.53939 38.3966 7.9123 37.7696C7.28522 37.1425 6.97168 36.3764 6.97168 35.4713V11.4907C6.97168 10.5857 7.28522 9.81957 7.9123 9.19248C8.53939 8.5654 9.30547 8.25186 10.2106 8.25186H12.6911V5.83983C12.6911 5.44715 12.8227 5.11928 13.0857 4.8562C13.3488 4.59342 13.6767 4.46204 14.0694 4.46204C14.4623 4.46204 14.7902 4.59342 15.053 4.8562C15.3161 5.11928 15.4476 5.44715 15.4476 5.83983V8.25186H29.0231V5.80579C29.0231 5.42446 29.1516 5.10509 29.4087 4.84769C29.6661 4.59059 29.9855 4.46204 30.3668 4.46204C30.7481 4.46204 31.0674 4.59059 31.3245 4.84769C31.5819 5.10509 31.7106 5.42446 31.7106 5.80579V8.25186H34.1911C35.0962 8.25186 35.8623 8.5654 36.4894 9.19248C37.1165 9.81957 37.43 10.5857 37.43 11.4907V35.4713C37.43 36.3764 37.1165 37.1425 36.4894 37.7696C35.8623 38.3966 35.0962 38.7102 34.1911 38.7102H10.2106ZM10.2106 36.0227H34.1911C34.3291 36.0227 34.4554 35.9652 34.5701 35.8502C34.685 35.7356 34.7425 35.6093 34.7425 35.4713V18.6574H9.65918V35.4713C9.65918 35.6093 9.71666 35.7356 9.83163 35.8502C9.94629 35.9652 10.0726 36.0227 10.2106 36.0227Z" fill="#313131"/>
</svg>
