<svg width="44" height="44" viewBox="0 0 44 44" fill="none" xmlns="http://www.w3.org/2000/svg">
<path d="M18.2371 36.4683C15.2764 35.7173 12.8572 34.149 10.9795 31.7634C9.10158 29.3781 8.1626 26.6177 8.1626 23.4823C8.1626 21.8722 8.44344 20.3327 9.00513 18.8638C9.56682 17.3947 10.3529 16.0469 11.3634 14.8205C11.6116 14.5425 11.9114 14.3989 12.2628 14.3896C12.6143 14.3803 12.9381 14.524 13.2344 14.8205C13.4825 15.0683 13.6112 15.3708 13.6205 15.728C13.6294 16.0854 13.51 16.4213 13.2621 16.7358C12.4765 17.6731 11.8781 18.7172 11.4669 19.8681C11.0557 21.0189 10.8501 22.2237 10.8501 23.4823C10.8501 25.947 11.5938 28.139 13.0812 30.0582C14.5686 31.9773 16.4722 33.2515 18.7921 33.8807C19.0883 33.9658 19.3318 34.1324 19.5227 34.3806C19.7132 34.6284 19.8084 34.9006 19.8084 35.1971C19.8084 35.645 19.6539 35.9975 19.3448 36.2546C19.0361 36.5121 18.6668 36.5833 18.2371 36.4683ZM24.9631 36.5028C24.5334 36.6178 24.1641 36.5419 23.8554 36.2752C23.5463 36.0089 23.3918 35.6518 23.3918 35.2038C23.3918 34.9258 23.487 34.6629 23.6775 34.4151C23.8683 34.1669 24.1119 33.9946 24.4081 33.8982C26.7167 33.1928 28.6175 31.8939 30.1105 30.0013C31.6036 28.1084 32.3501 25.9354 32.3501 23.4823C32.3501 20.4962 31.305 17.958 29.2147 15.8677C27.1244 13.7774 24.5862 12.7323 21.6001 12.7323H20.9663L22.4408 14.2068C22.7003 14.4666 22.8301 14.7814 22.8301 15.1511C22.8301 15.521 22.7003 15.8358 22.4408 16.0953C22.1813 16.3548 21.8666 16.4845 21.4966 16.4845C21.1269 16.4845 20.8124 16.3548 20.5529 16.0953L16.9798 12.5222C16.812 12.3544 16.6936 12.1775 16.6246 11.9914C16.556 11.8054 16.5216 11.6044 16.5216 11.3886C16.5216 11.1727 16.556 10.9717 16.6246 10.7857C16.6936 10.5996 16.812 10.4227 16.9798 10.2549L20.5529 6.68184C20.8124 6.42235 21.1269 6.2926 21.4966 6.2926C21.8666 6.2926 22.1813 6.42235 22.4408 6.68184C22.7003 6.94163 22.8301 7.25637 22.8301 7.62605C22.8301 7.99603 22.7003 8.31077 22.4408 8.57026L20.9663 10.0448H21.6001C25.3489 10.0448 28.5256 11.3472 31.1304 13.952C33.7352 16.5568 35.0376 19.7335 35.0376 23.4823C35.0376 26.5879 34.0958 29.3351 32.2121 31.724C30.3285 34.1129 27.9121 35.7058 24.9631 36.5028Z" fill="#342430"/>
</svg>
