<svg width="17" height="17" viewBox="0 0 17 17" fill="none" xmlns="http://www.w3.org/2000/svg">
<g clip-path="url(#clip0_557_35033)">
<path d="M12.6553 3.54785C12.1353 3.54785 11.7153 3.96785 11.7153 4.48785C11.7153 5.00785 12.1353 5.42785 12.6553 5.42785C13.1753 5.42785 13.5953 5.00785 13.5953 4.48785C13.5953 3.96785 13.1753 3.54785 12.6553 3.54785Z" fill="#A29AA0"/>
<path d="M8.48834 4.74805C6.31501 4.74805 4.54834 6.51471 4.54834 8.68805C4.54834 10.8614 6.31501 12.628 8.48834 12.628C10.6617 12.628 12.4283 10.8614 12.4283 8.68805C12.4283 6.51471 10.6617 4.74805 8.48834 4.74805ZM8.48834 11.2147C7.09501 11.2147 5.96167 10.0814 5.96167 8.68805C5.96167 7.29471 7.09501 6.16138 8.48834 6.16138C9.88167 6.16138 11.015 7.29471 11.015 8.68805C11.015 10.0814 9.88167 11.2147 8.48834 11.2147Z" fill="#A29AA0"/>
<path d="M11.6152 16.688H5.22854C2.57521 16.688 0.421875 14.5347 0.421875 11.8813V5.49466C0.421875 2.84132 2.57521 0.687988 5.22854 0.687988H11.6152C14.2685 0.687988 16.4219 2.84132 16.4219 5.49466V11.8813C16.4219 14.5347 14.2685 16.688 11.6152 16.688ZM5.22854 2.19465C3.40854 2.19465 1.92854 3.67465 1.92854 5.49466V11.8813C1.92854 13.7013 3.40854 15.1813 5.22854 15.1813H11.6152C13.4352 15.1813 14.9152 13.7013 14.9152 11.8813V5.49466C14.9152 3.67465 13.4352 2.19465 11.6152 2.19465H5.22854Z" fill="#A29AA0"/>
</g>
<defs>
<clipPath id="clip0_557_35033">
<rect width="16" height="16" fill="white" transform="translate(0.421875 0.687988)"/>
</clipPath>
</defs>
</svg>
