<svg width="25" height="17" viewBox="0 0 25 17" fill="none" xmlns="http://www.w3.org/2000/svg">
<g clip-path="url(#clip0_557_35037)">
<path d="M24.4219 5.70348C24.4219 2.93193 22.0653 0.687988 19.1546 0.687988H5.68919C2.77848 0.687988 0.421875 2.93193 0.421875 5.70348V11.6725C0.421875 14.444 2.77848 16.688 5.68919 16.688H19.1546C22.0653 16.688 24.4219 14.444 24.4219 11.6725V5.70348ZM16.5042 9.13614L10.4625 11.984C10.2288 12.1048 9.42104 11.9458 9.42104 11.6852V5.84333C9.42104 5.5827 10.2288 5.42378 10.4692 5.55092L16.2505 8.54496C16.4909 8.67845 16.7445 9.00901 16.5042 9.13614Z" fill="#A29AA0"/>
</g>
<defs>
<clipPath id="clip0_557_35037">
<rect width="24" height="16" fill="white" transform="translate(0.421875 0.687988)"/>
</clipPath>
</defs>
</svg>
