<svg width="26" height="29" viewBox="0 0 26 29" fill="none" xmlns="http://www.w3.org/2000/svg">
<g clip-path="url(#clip0_3498_1437)">
<path d="M16.0945 1.26113L9.33819 9.10819L3.25751 16.1511L0 19.441V9.25441C0 8.66954 0.144778 8.1334 0.361945 7.62164C0.675631 6.89055 1.23061 6.2813 1.9545 5.86702L10.979 0.530042C12.1614 -0.176681 13.6574 -0.176681 14.8398 0.530042L16.0945 1.26113Z" fill="url(#paint0_linear_3498_1437)"/>
<path d="M10.5447 16.1499L8.20409 26.7995L1.9545 23.1928C1.37539 22.876 0.916928 22.3886 0.603242 21.8524C0.217167 21.2432 0 20.5365 0 19.8054V19.4886L3.25751 16.1986C3.25751 16.1499 10.5447 16.1499 10.5447 16.1499Z" fill="url(#paint1_linear_3498_1437)"/>
<path opacity="0.37" d="M0.0723891 9.98551C0.0723891 8.59643 0.79628 7.28046 2.02689 6.59811L11.0755 1.26113C12.2579 0.554412 13.7539 0.554412 14.9363 1.26113L15.7084 1.69979L16.1186 1.23676L14.9121 0.530042C13.7298 -0.176681 12.2337 -0.176681 11.0514 0.530042L1.9545 5.79391C0.723891 6.50063 0 7.79223 0 9.25441V19.4897L0.0723891 19.4166V9.98551Z" fill="url(#paint2_linear_3498_1437)"/>
<path d="M5.47744 16.1499C4.36747 17.2709 2.00276 19.7079 0.579112 21.8281C0.217167 21.2432 0 20.5365 0 19.8054V19.4886L3.25751 16.1986C3.25751 16.1499 5.47744 16.1499 5.47744 16.1499Z" fill="#C64646"/>
<path d="M9.77246 27.7501L16.5288 19.903L22.6095 12.8358L25.867 9.5459V19.8056C25.867 20.3904 25.7222 20.9266 25.505 21.4383C25.1913 22.1694 24.6363 22.7787 23.9125 23.193L14.8638 28.4568C13.6815 29.1635 12.1854 29.1635 11.0031 28.4568L9.77246 27.7501Z" fill="url(#paint3_linear_3498_1437)"/>
<path d="M15.3223 12.7871L17.687 2.16187L23.9366 5.79296C24.5157 6.10976 24.9741 6.59716 25.2878 7.13329C25.6739 7.74254 25.8911 8.44926 25.8911 9.20472V9.52153L22.6336 12.8358L15.3223 12.7871Z" fill="url(#paint4_linear_3498_1437)"/>
<path opacity="0.37" d="M25.7944 19.0501C25.7944 20.4391 25.0705 21.7551 23.8399 22.4375L14.7912 27.7013C13.6089 28.408 12.1128 28.408 10.9305 27.7013L10.2066 27.2627L9.79639 27.7257L11.0029 28.4324C12.1852 29.1391 13.6813 29.1391 14.8636 28.4324L23.9123 23.1685C25.0946 22.4618 25.8668 21.1702 25.8668 19.7811V9.52148L25.7944 9.59459V19.0501Z" fill="url(#paint5_linear_3498_1437)"/>
<path d="M20.4136 12.7871C21.5235 11.6661 23.8882 9.2291 25.3119 7.1333C25.698 7.74254 25.9151 8.44927 25.9151 9.20473V9.52154L22.6576 12.8358L20.4136 12.7871Z" fill="#C64646"/>
</g>
<defs>
<linearGradient id="paint0_linear_3498_1437" x1="-7.94344" y1="24.2603" x2="17.8033" y2="-6.84122" gradientUnits="userSpaceOnUse">
<stop offset="0.2101" stop-color="#F45959"/>
<stop offset="0.9073" stop-color="#FFCE50"/>
</linearGradient>
<linearGradient id="paint1_linear_3498_1437" x1="25.2576" y1="1.77789" x2="-7.99695" y2="34.7048" gradientUnits="userSpaceOnUse">
<stop offset="0.2101" stop-color="#F45959"/>
<stop offset="0.9073" stop-color="#FFCE50"/>
</linearGradient>
<linearGradient id="paint2_linear_3498_1437" x1="8.35599" y1="13.0086" x2="7.1236" y2="2.2349" gradientUnits="userSpaceOnUse">
<stop offset="0.000671548" stop-color="#F45959" stop-opacity="0"/>
<stop offset="1" stop-color="#F45959"/>
</linearGradient>
<linearGradient id="paint3_linear_3498_1437" x1="7.57256" y1="37.1039" x2="33.3193" y2="6.00242" gradientUnits="userSpaceOnUse">
<stop offset="0.2101" stop-color="#F45959"/>
<stop offset="0.9073" stop-color="#FFCE50"/>
</linearGradient>
<linearGradient id="paint4_linear_3498_1437" x1="25.5411" y1="2.06451" x2="-7.71344" y2="34.9914" gradientUnits="userSpaceOnUse">
<stop offset="0.2101" stop-color="#F45959"/>
<stop offset="0.9073" stop-color="#FFCE50"/>
</linearGradient>
<linearGradient id="paint5_linear_3498_1437" x1="11.2488" y1="31.4262" x2="27.9237" y2="13.5005" gradientUnits="userSpaceOnUse">
<stop offset="0.000671548" stop-color="#F45959" stop-opacity="0"/>
<stop offset="1" stop-color="#F45959"/>
</linearGradient>
<clipPath id="clip0_3498_1437">
<rect width="25.9153" height="28.987" fill="white"/>
</clipPath>
</defs>
</svg>
